<?xml version="1.0" encoding="UTF-8" standalone="no"?>
<svg
   xmlns:dc="http://purl.org/dc/elements/1.1/"
   xmlns:cc="http://creativecommons.org/ns#"
   xmlns:rdf="http://www.w3.org/1999/02/22-rdf-syntax-ns#"
   xmlns:svg="http://www.w3.org/2000/svg"
   xmlns="http://www.w3.org/2000/svg"
   version="1.1"
   viewBox="0 0 28.052149 8.3081903"
   height="8.3081903mm"
   width="28.052149mm">
  <defs
     id="defs2" />
  <metadata
     id="metadata5">
    <rdf:RDF>
      <cc:Work
         rdf:about="">
        <dc:format>image/svg+xml</dc:format>
        <dc:type
           rdf:resource="http://purl.org/dc/dcmitype/StillImage" />
        <dc:title></dc:title>
      </cc:Work>
    </rdf:RDF>
  </metadata>
  <g
     transform="matrix(0.26458333,0,0,0.26458333,-17.363874,-33.81331)"
     aria-label="bitelio">
    <path
       id="letter1"
       d="m 65.634844,147.20013 c -0.08,3.28 1.08,6.12 3.52,8.52 2.44,2.4 5.28,3.56 8.56,3.44 3.16,-0.12 5.88,-1.32 8.08,-3.64 2.2,-2.32 3.32,-5.08 3.32,-8.28 0,-3.32 -1.2,-6.16 -3.6,-8.56 -2.36,-2.4 -5.2,-3.52 -8.48,-3.4 -3.36,0.12 -6.16,1.44 -8.4,4.04 v -11.52 h -3 v 19.24 z m 12.04,8.96 c -2.48,0.12 -4.6,-0.76 -6.4,-2.6 -1.8,-1.88 -2.64,-4.08 -2.56,-6.6 0.04,-2.4 0.92,-4.44 2.56,-6.16 1.64,-1.72 3.64,-2.56 5.96,-2.56 2.44,0 4.48,0.88 6.16,2.6 1.72,1.72 2.6,3.76 2.64,6.16 0.04,2.44 -0.76,4.52 -2.4,6.32 -1.64,1.8 -3.6,2.72 -5.96,2.84 z" />
    <path
       id="letter2"
       d="m 94.730469,127.80013 h -3 v 5.32 h 3 z m 0,8.04 h -3 v 22.8 h 3 z" />
    <path
       id="letter3"
       d="m 106.37859,156.60013 c -3.48,0 -5.24,-1.68 -5.24,-5.08 v -12.88 h 5.24 v -2.84 h -5.24 v -7.96 h -3.079996 v 24.2 c 0,4.72 2.759996,7.08 8.319996,7.08 z" />
    <path
       id="letter4"
       d="m 128.87422,151.16013 c -1.56,3.28 -4.12,4.96 -7.72,5 -2.32,0.04 -4.32,-0.72 -6.04,-2.2 -1.72,-1.48 -2.68,-3.4 -2.92,-5.68 h 20.48 v -1.64 c 0,-2.84 -1.08,-5.4 -3.24,-7.68 -2.24,-2.32 -4.88,-3.56 -7.92,-3.76 -3.4,-0.2 -6.32,0.96 -8.84,3.44 -2.48,2.44 -3.68,5.4 -3.6,8.8 0.04,3.24 1.28,6 3.68,8.36 2.4,2.32 5.16,3.44 8.28,3.4 2.48,-0.04 4.72,-0.76 6.76,-2.2 2.04,-1.44 3.48,-3.4 4.32,-5.84 z m -16.68,-5.68 c 0.44,-2.16 1.44,-3.92 3.08,-5.24 1.64,-1.32 3.56,-2 5.76,-1.96 2.2,0.04 4.08,0.72 5.64,2.04 1.56,1.32 2.56,3.04 3,5.16 z" />
    <path
       id="letter5"
       d="m 138.44234,127.80013 h -3.04 v 30.84 h 3.04 z" />
    <path
       id="letter6"
       d="m 144.88672,127.80013 h -3 v 5.32 h 3 z m 0,8.04 h -3 v 22.8 h 3 z" />
    <path
       id="letter7"
       d="m 171.65484,147.24013 c 0,-3.2 -1.12,-5.96 -3.32,-8.28 -2.2,-2.36 -4.92,-3.56 -8.08,-3.68 -3.28,-0.12 -6.12,1.04 -8.48,3.44 -2.36,2.36 -3.56,5.24 -3.56,8.56 0,3.2 1.08,5.96 3.28,8.28 2.2,2.32 4.92,3.52 8.08,3.6 3.28,0.12 6.12,-1.04 8.48,-3.4 2.4,-2.4 3.6,-5.24 3.6,-8.52 z m -18,6.12 c -1.64,-1.8 -2.4,-3.92 -2.36,-6.32 0.04,-2.44 0.88,-4.48 2.6,-6.2 1.72,-1.72 3.76,-2.6 6.2,-2.56 2.32,0 4.28,0.84 5.92,2.56 1.64,1.72 2.52,3.76 2.6,6.16 0.04,2.52 -0.8,4.68 -2.6,6.56 -1.76,1.88 -3.88,2.72 -6.4,2.6 -2.36,-0.08 -4.32,-1 -5.96,-2.8 z" />
  </g>
</svg>
