<?xml version="1.0" standalone="no"?>
<!DOCTYPE svg PUBLIC "-//W3C//DTD SVG 20010904//EN"
 "http://www.w3.org/TR/2001/REC-SVG-20010904/DTD/svg10.dtd">
<svg version="1.0" xmlns="http://www.w3.org/2000/svg"
 width="700.000000pt" height="700.000000pt" viewBox="0 0 700.000000 700.000000"
 preserveAspectRatio="xMidYMid meet">
<g transform="translate(0.000000,700.000000) scale(0.100000,-0.100000)"
fill="#000000" stroke="none">
<path d="M3345 6993 c-176 -23 -349 -75 -495 -148 -432 -215 -742 -650 -797
-1120 -10 -80 -10 -306 0 -375 29 -213 113 -437 226 -605 45 -67 46 -71 10
-44 -80 59 -227 134 -350 177 -150 53 -284 75 -459 76 -181 1 -249 -6 -375
-39 -490 -128 -871 -481 -1029 -956 -36 -107 -39 -118 -61 -254 -20 -119 -13
-365 14 -490 44 -209 122 -388 241 -557 74 -104 207 -244 295 -309 33 -24 62
-46 65 -49 49 -51 357 -192 468 -215 9 -2 37 -8 62 -14 114 -26 347 -34 491
-18 184 20 478 131 614 231 54 40 58 40 28 -5 -123 -180 -214 -421 -242 -639
-15 -116 -6 -340 17 -456 113 -562 529 -1002 1080 -1140 126 -31 205 -39 382
-38 635 4 1208 448 1375 1065 26 98 29 112 44 219 9 70 7 310 -4 375 -19 115
-54 250 -84 320 -42 100 -64 143 -118 232 l-61 102 56 -38 c161 -109 412 -204
602 -227 83 -10 306 -11 390 -1 80 9 236 48 321 80 337 127 615 375 785 700
48 93 115 271 129 344 3 16 11 57 17 93 19 96 15 395 -6 495 -10 44 -19 90
-22 102 -18 90 -119 320 -178 406 -14 21 -26 40 -26 43 0 11 -117 152 -175
210 -141 144 -287 239 -515 337 -40 18 -198 62 -250 72 -95 16 -146 20 -270
19 -166 0 -221 -6 -350 -38 -150 -38 -315 -109 -430 -185 -30 -20 -61 -40 -68
-44 -7 -5 7 22 32 60 119 185 198 400 223 608 9 75 9 303 0 370 -44 324 -182
607 -412 840 -118 119 -217 192 -366 269 -146 76 -291 124 -449 151 -43 7
-334 14 -375 8z m415 -191 c185 -40 394 -134 512 -230 143 -116 208 -186 293
-313 154 -228 225 -470 220 -744 -3 -129 -6 -157 -35 -281 -38 -165 -115 -325
-226 -474 -86 -115 -86 -127 7 -220 107 -107 109 -107 239 -11 163 121 362
210 530 237 19 3 53 9 75 13 74 13 387 2 416 -15 3 -2 19 -6 36 -9 59 -10 212
-64 282 -100 382 -192 636 -539 706 -965 13 -84 14 -314 0 -390 -36 -205 -122
-408 -239 -564 -213 -282 -504 -456 -851 -510 -87 -14 -314 -14 -380 -1 -244
48 -412 121 -591 256 -108 82 -121 81 -219 -16 -99 -98 -99 -110 -9 -231 182
-248 264 -495 258 -788 -3 -153 -8 -198 -38 -312 -129 -494 -541 -865 -1056
-949 -110 -18 -329 -13 -435 9 -406 86 -727 332 -910 696 -175 348 -175 792 1
1142 33 66 127 215 143 228 25 19 51 68 51 94 0 25 -12 45 -57 92 -78 81 -111
103 -143 94 -14 -4 -66 -37 -115 -74 -165 -122 -378 -210 -580 -240 -94 -14
-338 -15 -375 -2 -8 3 -31 7 -50 10 -74 11 -219 59 -315 105 -446 212 -732
665 -732 1159 -1 481 259 912 688 1141 91 49 238 104 309 116 19 3 55 11 80
17 71 16 304 18 400 3 233 -38 447 -134 634 -284 65 -52 92 -45 181 45 99 99
99 107 5 234 -65 88 -147 238 -184 337 -49 131 -71 272 -70 443 0 128 9 201
35 303 126 494 524 865 1024 956 136 25 353 22 485 -7z"/>
<path d="M3347 6460 c-200 -36 -393 -141 -532 -291 -93 -101 -155 -209 -201
-346 -35 -108 -39 -139 -38 -293 0 -153 21 -252 78 -375 57 -122 106 -186 267
-351 l158 -160 -717 -715 c-789 -788 -753 -757 -885 -763 -230 -12 -403 204
-341 423 66 231 337 322 528 176 58 -44 79 -54 102 -50 10 2 22 4 26 4 11 1
312 304 334 336 30 43 16 82 -49 140 -101 91 -241 166 -385 206 -100 28 -305
35 -407 13 -373 -78 -656 -354 -734 -715 -91 -421 113 -841 504 -1037 54 -27
138 -57 190 -67 93 -20 134 -24 230 -23 181 2 355 57 506 158 35 24 134 112
219 196 l156 154 715 -718 c782 -783 755 -752 763 -878 6 -103 -23 -182 -95
-259 -60 -63 -145 -99 -240 -99 -65 -1 -84 4 -141 32 -83 41 -123 80 -161 161
-26 54 -30 76 -30 142 0 67 4 86 31 141 17 35 45 78 60 95 17 19 28 42 27 55
-1 13 -3 29 -4 35 0 7 -78 89 -171 183 -217 216 -219 217 -341 63 -70 -89
-140 -226 -171 -338 -32 -118 -32 -345 0 -465 112 -416 474 -698 897 -698 256
0 468 85 653 263 178 172 271 386 278 640 4 170 -18 275 -87 423 -50 108 -107
181 -265 342 l-154 156 718 715 c795 794 755 760 892 764 249 7 418 -247 315
-473 -90 -199 -344 -260 -515 -123 -58 46 -78 54 -110 42 -29 -10 -329 -302
-349 -340 -28 -52 -3 -98 99 -176 97 -75 260 -153 355 -171 11 -2 43 -8 70
-13 82 -16 288 -6 380 18 321 85 577 341 667 666 32 117 32 345 0 465 -72 270
-254 491 -503 609 -138 66 -220 84 -394 85 -176 1 -264 -18 -405 -86 -119 -57
-174 -100 -345 -269 l-151 -149 -715 718 c-632 632 -719 723 -738 770 -95 228
77 478 320 467 133 -5 239 -76 294 -197 57 -124 35 -251 -65 -378 -27 -35 -31
-73 -12 -101 9 -13 88 -95 175 -181 146 -146 161 -158 194 -158 31 0 44 8 84
49 100 104 180 250 219 401 27 105 37 275 21 362 -7 35 -13 70 -15 78 -24 141
-124 321 -250 446 -119 119 -262 202 -421 245 -89 24 -303 34 -388 19z m517
-2600 l359 -360 -362 -362 -362 -361 -362 362 -361 362 359 359 c198 198 362
360 365 360 3 0 167 -162 364 -360z"/>
</g>
</svg>
